<?xml version="1.0" encoding="UTF-8"?>
<svg width="24px" height="29px" viewBox="0 0 24 29" version="1.1" xmlns="http://www.w3.org/2000/svg" xmlns:xlink="http://www.w3.org/1999/xlink">
    <!-- Generator: Sketch 64 (93537) - https://sketch.com -->
    <title>Combined Shape</title>
    <desc>Created with Sketch.</desc>
    <g id="Page-1" stroke="none" stroke-width="1" fill="none" fill-rule="evenodd" opacity="0.5">
        <g id="home(dark)" transform="translate(-228.000000, -1477.000000)" fill="#505050">
            <g id="Group-9" transform="translate(228.000000, 1477.000000)">
                <path d="M12.192137,8.36183536 C13.3515586,8.36183536 15.5570653,6.78949464 17.8316161,7.02380926 C18.7826024,7.05069782 21.4922621,7.39256669 23.2379082,9.89704425 C23.0972144,9.98027075 20.0123711,11.7625983 20.0462418,15.4245645 C20.0840207,19.8163631 23.9544048,21.267065 24,21.2824299 C23.9778537,21.3848626 23.3942347,23.377177 21.9443063,25.4002213 C20.7327758,27.1812684 19.4613201,28.922623 17.4460107,28.9533528 C15.4867183,28.998167 14.8275415,27.8201919 12.5803478,27.8201919 C10.3123106,27.8201919 9.61014396,28.922623 7.73162029,28.998167 C5.81140956,29.0685895 4.343243,27.0967615 3.08741997,25.3323596 C0.578379346,21.7292922 -1.37570214,15.1761654 1.24406977,10.7177856 C2.51422274,8.53084918 4.82915793,7.12368106 7.30302509,7.08526883 C9.22584127,7.0468566 11.010569,8.36183536 12.192137,8.36183536 Z M17.9678462,-1.77635684e-15 C18.1606009,1.79378809 17.4656351,3.55946458 16.4481003,4.85929163 C15.3872941,6.13770031 13.687906,7.11491322 12.034412,6.98908033 C11.8180547,5.26490192 12.6559474,3.42961574 13.5934956,2.31050616 C14.6543019,1.03879072 16.4953055,0.0655937437 17.9678462,-1.77635684e-15 Z" id="Combined-Shape"></path>
            </g>
        </g>
    </g>
</svg>