<?xml version="1.0" encoding="UTF-8"?>
<svg width="24px" height="27px" viewBox="0 0 24 27" version="1.1" xmlns="http://www.w3.org/2000/svg" xmlns:xlink="http://www.w3.org/1999/xlink">
    <!-- Generator: Sketch 64 (93537) - https://sketch.com -->
    <title>google play</title>
    <desc>Created with Sketch.</desc>
    <g id="Page-1" stroke="none" stroke-width="1" fill="none" fill-rule="evenodd" opacity="0.5">
        <g id="home(dark)" transform="translate(-379.000000, -1479.000000)" fill="#505050">
            <path d="M379.764037,1505.73827 C379.301236,1505.61021 379,1505.13821 379,1504.40782 L379,1480.29855 C379,1479.62209 379.255061,1479.16587 379.659382,1479 L379.659382,1479 L391.192931,1492.43575 L379.764037,1505.73827 L379.764037,1505.73827 Z M381.351713,1505.22651 L395.234467,1497.14385 L391.853125,1493.20483 L381.351713,1505.22651 L381.351713,1505.22651 Z M395.330065,1487.62039 L381.640782,1479.64852 L391.873142,1491.64403 L395.330065,1487.62039 L395.330065,1487.62039 Z M396.258871,1488.16127 L401.621579,1491.28421 C402.636943,1491.8755 402.646229,1492.82866 401.621579,1493.42522 L396.1232,1496.62642 L392.536859,1492.42211 L396.258871,1488.16127 L396.258871,1488.16127 Z" id="google-play"></path>
        </g>
    </g>
</svg>