<?xml version="1.0" encoding="UTF-8"?>
<svg width="12px" height="14px" viewBox="0 0 12 14" version="1.1" xmlns="http://www.w3.org/2000/svg" xmlns:xlink="http://www.w3.org/1999/xlink">
    <!-- Generator: Sketch 64 (93537) - https://sketch.com -->
    <title>ht_call</title>
    <desc>Created with Sketch.</desc>
    <g id="Symbols" stroke="none" stroke-width="1" fill="none" fill-rule="evenodd">
        <g id="individuals_top_head" transform="translate(-1137.000000, -14.000000)" fill="#7F7F7F">
            <g id="Group-8">
                <g id="Group-2" transform="translate(959.000000, 14.000000)">
                    <path d="M188.655981,9.74420915 C187.878164,9.02084343 187.08879,8.58267175 186.320519,9.30494477 L185.861768,9.74147741 C185.52612,10.0583597 184.902058,11.5389647 182.489216,8.52093434 C180.076877,5.50672838 181.512422,5.03741481 181.848572,4.72326429 L182.309836,4.2861853 C183.074086,3.56227323 182.785671,2.65096354 182.234466,1.71288277 L181.901833,1.14468009 C181.348116,0.208784705 180.745156,-0.40585762 179.978896,0.316961755 L179.564864,0.710332843 C179.226202,0.978590071 178.279556,1.85056265 178.049929,3.50709201 C177.773572,5.4947087 178.645351,7.77079753 180.642653,10.2681576 C182.637443,12.7666103 184.590529,14.0215734 186.440609,13.9997194 C187.978154,13.9816899 188.906712,13.0845853 189.197137,12.7584151 L189.612676,12.3644977 C190.376927,11.6422247 189.902097,10.9068393 189.123777,10.1818345 L188.655981,9.74420915 Z" id="ht_call"></path>
                </g>
            </g>
        </g>
    </g>
</svg>