<?xml version="1.0" encoding="UTF-8"?>
<svg width="11px" height="13px" viewBox="0 0 11 13" version="1.1" xmlns="http://www.w3.org/2000/svg" xmlns:xlink="http://www.w3.org/1999/xlink">
    <!-- Generator: Sketch 64 (93537) - https://sketch.com -->
    <title>ht_location</title>
    <desc>Created with Sketch.</desc>
    <g id="Symbols" stroke="none" stroke-width="1" fill="none" fill-rule="evenodd">
        <g id="individuals_top_head" transform="translate(-959.000000, -14.000000)" fill="#7F7F7F">
            <g id="Group-8">
                <g id="Group-2" transform="translate(959.000000, 14.000000)">
                    <g id="Group-6">
                        <path d="M5.5,1.24344979e-14 C8.53756612,1.24344979e-14 11,2.4291666 11,5.42569546 C11,7.42338137 9.16666667,9.94814955 5.5,13 C1.83333333,9.94814955 8.8817842e-16,7.42338137 8.8817842e-16,5.42569546 C8.8817842e-16,2.4291666 2.46243388,1.24344979e-14 5.5,1.24344979e-14 Z M5.5,3.39105966 C4.3609127,3.39105966 3.4375,4.30199714 3.4375,5.42569546 C3.4375,6.54939378 4.3609127,7.46033126 5.5,7.46033126 C6.6390873,7.46033126 7.5625,6.54939378 7.5625,5.42569546 C7.5625,4.30199714 6.6390873,3.39105966 5.5,3.39105966 Z" id="ht_location"></path>
                    </g>
                </g>
            </g>
        </g>
    </g>
</svg>