<svg width="100" height="100" viewBox="0 0 100 100" fill="none" xmlns="http://www.w3.org/2000/svg">
<path d="M78.3519 0.51532H21.9974C10.2211 0.51532 0.674622 10.0618 0.674622 21.8381V78.1926C0.674622 89.9688 10.2211 99.5153 21.9974 99.5153H78.3519C90.1281 99.5153 99.6746 89.9688 99.6746 78.1926V21.8381C99.6746 10.0618 90.1281 0.51532 78.3519 0.51532Z" fill="#505050" fill-opacity="0.5"/>
<path d="M24.6961 9.40614C23.7173 9.45867 23.7669 10.8823 23.7669 10.8823C29.0271 21.1259 38.7129 26.1504 49.8823 26.151C61.037 26.1347 70.8188 21.0548 76.0721 10.8246C76.0721 10.8246 76.2804 8.89824 74.2302 9.56596C68.8428 18.4957 59.7918 23.7784 49.8889 23.7951C39.9672 23.7976 30.9486 18.5703 25.5509 9.62362C25.2023 9.45535 24.922 9.39403 24.6961 9.40614V9.40614ZM60.297 49.2237L57.3044 58.1365L54.3911 49.2303H51.5472L56.1387 62.1859H58.3526L61.3519 53.6751L64.3479 62.1859H66.5799L71.1615 49.2303H68.3888L65.4705 58.1365L62.4779 49.2237H60.297ZM44.4013 49.2269L38.5945 62.1793H41.3243L42.4453 59.6718L42.5247 59.4824H48.5579L49.7401 62.1793H52.5442L46.7904 49.3027L46.7391 49.2269L44.4013 49.2269ZM86.4538 49.2285V62.1711H89.0926V49.2286L86.4538 49.2285ZM10.7927 49.2302V62.1908H13.4679V56.9272H19.5061V62.1909H22.1813V49.2303H19.5061V54.4593H13.4679V49.2303L10.7927 49.2302ZM34.5602 49.2334V56.6519C34.5602 58.7593 33.4967 59.8843 31.5643 59.8843C29.621 59.8843 28.5501 58.7278 28.5501 56.563V49.2418H25.8766V56.6521C25.8766 60.2986 27.9381 62.3886 31.5296 62.3886C35.1551 62.3886 37.2338 60.2583 37.2338 56.545V49.2336L34.5602 49.2334ZM73.3175 49.2383V62.1809H83.271V59.8217H75.9547V56.6124H80.819V54.2518H75.9547V51.5994H83.0164V49.2386L73.3175 49.2383ZM45.5338 52.5069L47.4419 56.8463L47.5708 57.1445H43.5266L43.6539 56.8463L45.5338 52.5069Z" fill="white"/>
</svg>
