<?xml version="1.0" encoding="UTF-8"?>
<svg width="15px" height="15px" viewBox="0 0 15 15" version="1.1" xmlns="http://www.w3.org/2000/svg" xmlns:xlink="http://www.w3.org/1999/xlink">
    <!-- Generator: Sketch 64 (93537) - https://sketch.com -->
    <title>i</title>
    <desc>Created with Sketch.</desc>
    <g id="Symbols" stroke="none" stroke-width="1" fill="none" fill-rule="evenodd" opacity="0.3">
        <g id="footer" transform="translate(-213.000000, -28.000000)" fill="#000000">
            <g id="i" transform="translate(213.000000, 28.000000)">
                <path d="M10.9396362,0 L4.06036377,0 C1.82144165,0 0,1.82144165 0,4.06036377 L0,10.9397507 C0,13.1785583 1.82144165,15 4.06036377,15 L10.9397507,15 C13.1785583,15 15,13.1785583 15,10.9397507 L15,4.06036377 C15,1.82144165 13.1785583,0 10.9396362,0 Z M7.5,11.6014481 C5.23841859,11.6014481 3.39855193,9.76158141 3.39855193,7.5 C3.39855193,5.23841859 5.23841859,3.39855193 7.5,3.39855193 C9.76158141,3.39855193 11.6014481,5.23841859 11.6014481,7.5 C11.6014481,9.76158141 9.76158141,11.6014481 7.5,11.6014481 L7.5,11.6014481 Z M11.6995239,4.36580657 C11.031189,4.36580657 10.4875946,3.82221223 10.4875946,3.15387727 C10.4875946,2.4855423 11.031189,1.9418335 11.6995239,1.9418335 C12.3678589,1.9418335 12.9115677,2.4855423 12.9115677,3.15387727 C12.9115677,3.82221223 12.3678589,4.36580657 11.6995239,4.36580657 Z" id="Shape" fill-rule="nonzero"></path>
                <path d="M7.5,4.27791595 C5.72341919,4.27791595 4.27791595,5.72330476 4.27791595,7.5 C4.27791595,9.27658081 5.72341919,10.7220841 7.5,10.7220841 C9.27669524,10.7220841 10.7220841,9.27658081 10.7220841,7.5 C10.7220841,5.72330476 9.27669524,4.27791595 7.5,4.27791595 Z" id="Path"></path>
                <path d="M11.6995239,2.82131194 C11.5161896,2.82131194 11.3669586,2.9705429 11.3669586,3.15387727 C11.3669586,3.3372116 11.5161896,3.48644256 11.6995239,3.48644256 C11.8829727,3.48644256 12.0322037,3.33732604 12.0322037,3.15387727 C12.0322037,2.97042847 11.8829727,2.82131194 11.6995239,2.82131194 Z" id="Path"></path>
            </g>
        </g>
    </g>
</svg>