<?xml version="1.0" encoding="UTF-8"?>
<svg width="14px" height="13px" viewBox="0 0 14 13" version="1.1" xmlns="http://www.w3.org/2000/svg" xmlns:xlink="http://www.w3.org/1999/xlink">
    <!-- Generator: Sketch 64 (93537) - https://sketch.com -->
    <title>l</title>
    <desc>Created with Sketch.</desc>
    <g id="Symbols" stroke="none" stroke-width="1" fill="none" fill-rule="evenodd" opacity="0.3">
        <g id="footer" transform="translate(-164.000000, -27.000000)" fill="#000000" fill-rule="nonzero">
            <g id="l" transform="translate(164.000000, 27.000000)">
                <path d="M13.9713179,7.96858981 L13.9713179,12.9861165 L10.9768121,12.9861165 L10.9768121,8.3046335 C10.9768121,7.1286068 10.5436891,6.32601456 9.45977726,6.32601456 C8.63234803,6.32601456 8.13994432,6.86690291 7.92331787,7.39012136 C7.84432019,7.5771699 7.82398608,7.83751699 7.82398608,8.09934709 L7.82398608,12.9861165 L4.82847332,12.9861165 C4.82847332,12.9861165 4.86881671,5.05722087 4.82847332,4.23572816 L7.82369374,4.23572816 L7.82369374,5.47606068 C7.81761949,5.48533738 7.80972622,5.49533981 7.80400928,5.50433252 L7.82369374,5.50433252 L7.82369374,5.47606068 C8.22163805,4.88067961 8.93232483,4.03015777 10.5230626,4.03015777 C12.4938794,4.03015777 13.9713179,5.28080825 13.9713179,7.96858981 Z M1.69503944,0.0176067961 C0.670278422,0.0176067961 0,0.670541262 0,1.52917233 C0,2.36909223 0.650886311,3.04184223 1.65528074,3.04184223 L1.67529002,3.04184223 C2.71989791,3.04184223 3.36954988,2.36921845 3.36954988,1.52917233 C3.34986543,0.670541262 2.71989791,0.0176067961 1.69503944,0.0176067961 Z M0.177907193,12.9861165 L3.17228306,12.9861165 L3.17228306,4.23572816 L0.177907193,4.23572816 L0.177907193,12.9861165 Z" id="LinkedIn"></path>
            </g>
        </g>
    </g>
</svg>