<svg width="15" height="15" viewBox="0 0 15 15" fill="none" xmlns="http://www.w3.org/2000/svg">
<path d="M6.81818 0C3.05864 0 0 3.05864 0 6.81818C0 10.3827 2.75045 13.3118 6.23932 13.607C6.3075 13.3595 6.41455 13.1257 6.55295 12.9048C6.64636 12.7568 6.75886 12.617 6.88091 12.482C6.92864 12.4295 6.97773 12.3784 7.02955 12.3286C7.50955 11.8602 8.15932 11.4825 8.95091 11.2384C8.47568 10.6991 8.18182 9.99545 8.18182 9.20455C8.18182 7.48432 9.52977 6.13636 11.25 6.13636C11.6018 6.13636 11.9345 6.19841 12.2461 6.30341C12.2461 6.30545 12.2468 6.30818 12.2468 6.31023C12.7923 6.49295 13.2593 6.81886 13.6145 7.25045C13.6234 7.10659 13.6364 6.96409 13.6364 6.81818C13.6364 3.05864 10.5777 0 6.81818 0ZM7.5 7.10045L4.57295 10.0275L3.60886 9.06341L6.13636 6.53591V2.72727H7.5V7.10045Z" fill="#7F7F7F"/>
<path d="M11.25 7.5C10.7979 7.5 10.3644 7.67959 10.0447 7.99925C9.72504 8.31891 9.54545 8.75247 9.54545 9.20455C9.54545 9.65662 9.72504 10.0902 10.0447 10.4098C10.3644 10.7295 10.7979 10.9091 11.25 10.9091C11.7021 10.9091 12.1356 10.7295 12.4553 10.4098C12.775 10.0902 12.9545 9.65662 12.9545 9.20455C12.9545 8.75247 12.775 8.31891 12.4553 7.99925C12.1356 7.67959 11.7021 7.5 11.25 7.5ZM15 15C15 14.8568 15 14.4327 15 14.2889C15 13.0984 13.2982 12.2727 11.25 12.2727C9.20182 12.2727 7.5 13.0984 7.5 14.2889C7.5 14.4327 7.5 14.8575 7.5 15H15Z" fill="#7F7F7F"/>
</svg>
