<?xml version="1.0" encoding="UTF-8"?>
<svg width="16px" height="16px" viewBox="0 0 16 16" version="1.1" xmlns="http://www.w3.org/2000/svg" xmlns:xlink="http://www.w3.org/1999/xlink">
    <!-- Generator: Sketch 64 (93537) - https://sketch.com -->
    <title>Shape</title>
    <desc>Created with Sketch.</desc>
    <g id="Symbols" stroke="none" stroke-width="1" fill="none" fill-rule="evenodd">
        <g id="individuals_top_head" transform="translate(-1196.000000, -14.000000)" fill="#000000" fill-rule="nonzero" stroke="#000000" stroke-width="0.5">
            <path d="M1210.79793,27.7356125 L1206.91529,23.8562959 C1208.76116,21.4315002 1208.29078,17.9704771 1205.8639,16.1261826 C1203.43702,14.2818881 1199.97303,14.7518743 1198.12715,17.17667 C1196.28127,19.6014657 1196.75166,23.0624887 1199.17854,24.9067832 C1201.15346,26.4082434 1203.88898,26.4082434 1205.8639,24.9067832 L1209.74654,28.7860999 C1210.03913,29.0713 1210.50535,29.0713 1210.79793,28.7860999 C1211.07327,28.498523 1211.06138,28.0344786 1210.79793,27.7356125 Z M1198.52737,20.5349021 C1198.52737,18.3198474 1200.32448,16.5242746 1202.54144,16.5242746 C1204.75839,16.5242746 1206.55551,18.3198474 1206.55551,20.5349021 C1206.55551,22.7499569 1204.75839,24.5455297 1202.54144,24.5455297 C1200.32567,24.543153 1198.52975,22.7487685 1198.52737,20.5349021 Z" id="Shape"></path>
        </g>
    </g>
</svg>