<?xml version="1.0" encoding="UTF-8"?>
<svg width="15px" height="11px" viewBox="0 0 15 11" version="1.1" xmlns="http://www.w3.org/2000/svg" xmlns:xlink="http://www.w3.org/1999/xlink">
    <!-- Generator: Sketch 64 (93537) - https://sketch.com -->
    <title>y</title>
    <desc>Created with Sketch.</desc>
    <g id="Symbols" stroke="none" stroke-width="1" fill="none" fill-rule="evenodd" opacity="0.3">
        <g id="footer" transform="translate(-63.000000, -30.000000)" fill="#000000" fill-rule="nonzero">
            <g id="y" transform="translate(63.000000, 30.000000)">
                <path d="M14.9806348,4.20725956 C14.9751855,3.89838798 14.9513379,3.50785792 14.9096484,3.03603005 C14.8677246,2.56393169 14.8077539,2.14202459 14.7297656,1.77027869 C14.6405273,1.35272951 14.4467285,1.00087978 14.148457,0.714849727 C13.8501855,0.428759563 13.5030176,0.262918033 13.1069824,0.217084699 C11.8689551,0.0741748634 9.99814453,0.00264480874 7.49449219,0.00264480874 C4.99081055,0.00264480874 3.1199707,0.0741748634 1.88203125,0.217084699 C1.48605469,0.262887978 1.14026367,0.428759563 0.844804688,0.714849727 C0.549228516,1.00078962 0.356835938,1.35263934 0.267597656,1.77027869 C0.184042969,2.14214481 0.121230469,2.56402186 0.0794238281,3.03603005 C0.0376757813,3.50785792 0.0139453125,3.8982377 0.00840820313,4.20725956 C0.00275390625,4.5161612 0,4.9451612 0,5.49437978 C0,6.04353825 0.00275390625,6.47265847 0.0084375,6.7815 C0.0139746094,7.09058197 0.0377050781,7.48090164 0.079453125,7.95269945 C0.121259766,8.42476776 0.181230469,8.84667486 0.259306641,9.21848087 C0.348544922,9.63615027 0.542285156,9.98793989 0.840615234,10.2738497 C1.13900391,10.5598798 1.48620117,10.7257514 1.88206055,10.7715546 C3.12,10.9146148 4.99072266,10.9861148 7.49452148,10.9861148 C9.9984082,10.9861148 11.8689844,10.9146148 13.1070117,10.7715546 C13.5030469,10.7257814 13.8486914,10.5598798 14.1442676,10.2738497 C14.4398438,9.98790984 14.6321191,9.63593989 14.7213574,9.21848087 C14.8049707,8.84667486 14.8677246,8.42476776 14.9096484,7.95269945 C14.9513379,7.48093169 14.9750098,7.09040164 14.9806348,6.7815 C14.9862305,6.47265847 14.989043,6.04353825 14.989043,5.49437978 C14.989043,4.9451612 14.9862598,4.5161612 14.9806348,4.20725956 Z M10.4555566,5.9577623 L6.17302734,8.70352459 C6.09492188,8.76071858 6.0000293,8.78930055 5.88855469,8.78930055 C5.8049707,8.78930055 5.71854492,8.7663388 5.62933594,8.72059563 C5.44535156,8.61774863 5.35338867,8.45749727 5.35338867,8.24017213 L5.35338867,2.74861749 C5.35338867,2.53135246 5.44538086,2.37110109 5.62933594,2.26816393 C5.81897461,2.16504645 6.00014648,2.17081694 6.17302734,2.28532514 L10.4555859,5.03111749 C10.6228125,5.12819399 10.7064258,5.28273497 10.7064258,5.49440984 C10.7064258,5.70599454 10.6227832,5.86059563 10.4555566,5.9577623 Z" id="Shape"></path>
            </g>
        </g>
    </g>
</svg>